<svg width="214" height="70" viewBox="0 0 214 70" fill="none" xmlns="http://www.w3.org/2000/svg">
<rect width="70" height="70" fill="#FC7726"/>
<path d="M20.9714 42H18.7083V37.3784H14.4675V42H12.197V31.292H14.4675V35.4888H18.7083V31.292H20.9714V42ZM23.5314 31.292H26.8639C28.2897 31.292 29.3688 31.4922 30.1012 31.8926C30.8336 32.293 31.1999 32.9961 31.1999 34.002C31.1999 34.4072 31.1339 34.7734 31.0021 35.1006C30.8751 35.4277 30.6896 35.6963 30.4455 35.9062C30.2013 36.1162 29.9035 36.2529 29.5519 36.3164V36.3896C29.9083 36.4629 30.2306 36.5898 30.5187 36.7705C30.8068 36.9463 31.0363 37.2051 31.2072 37.5469C31.383 37.8838 31.4708 38.333 31.4708 38.8945C31.4708 39.5439 31.3122 40.1006 30.9948 40.5645C30.6774 41.0283 30.2233 41.3848 29.6325 41.6338C29.0465 41.8779 28.3483 42 27.5377 42H23.5314V31.292ZM25.8019 35.5327H27.1203C27.7794 35.5327 28.236 35.4302 28.4899 35.2251C28.7438 35.0151 28.8708 34.7075 28.8708 34.3022C28.8708 33.8921 28.7194 33.5991 28.4167 33.4233C28.1188 33.2427 27.6452 33.1523 26.9958 33.1523H25.8019V35.5327ZM25.8019 37.3345V40.125H27.2814C27.965 40.125 28.4411 39.9932 28.7096 39.7295C28.9782 39.4658 29.1125 39.1118 29.1125 38.6675C29.1125 38.4038 29.0539 38.1719 28.9367 37.9717C28.8195 37.7715 28.6217 37.6152 28.3434 37.5029C28.07 37.3906 27.6916 37.3345 27.2082 37.3345H25.8019ZM39.6265 42H33.4595V31.292H39.6265V33.1523H35.73V35.5034H39.3555V37.3638H35.73V40.125H39.6265V42ZM43.9516 42H41.7177V31.292H47.8554V33.1523H43.9516V35.9136H47.5844V37.7666H43.9516V42ZM56.3553 42L55.579 39.4512H51.6751L50.8988 42H48.4525L52.2318 31.248H55.0077L58.8016 42H56.3553ZM55.037 37.5469L54.2606 35.0566C54.2118 34.8906 54.1459 34.6782 54.0628 34.4194C53.9847 34.1558 53.9042 33.8896 53.8211 33.6211C53.743 33.3477 53.6795 33.1108 53.6307 32.9106C53.5819 33.1108 53.5135 33.3599 53.4256 33.6577C53.3426 33.9507 53.2621 34.229 53.1839 34.4927C53.1058 34.7563 53.0497 34.9443 53.0155 35.0566L52.2464 37.5469H55.037Z" fill="white"/>
<path d="M103.364 22H102.209V12.4239H100.138V11.3777H105.442V12.4239H103.364V22ZM112.217 22H111.062V16.9722H107.698V22H106.543V11.3777H107.698V15.9187H111.062V11.3777H112.217V22ZM118.433 22H114.255V11.3777H118.433V12.4094H115.411V15.9332H118.252V16.9722H115.411V20.9465H118.433V22ZM128.337 22H127.181V16.9722H123.817V22H122.662V11.3777H123.817V15.9187H127.181V11.3777H128.337V22ZM134.632 22L133.833 18.5852H131.312L130.513 22H129.278L131.842 11.3777H133.245L135.86 22H134.632ZM133.615 17.5171L132.801 13.9134C132.767 13.7341 132.734 13.5598 132.7 13.3902C132.671 13.2159 132.642 13.0487 132.612 12.8889C132.588 12.7242 132.564 12.5644 132.54 12.4094C132.525 12.5644 132.506 12.7242 132.482 12.8889C132.457 13.0536 132.428 13.2207 132.395 13.3902C132.361 13.5549 132.324 13.7245 132.286 13.8988L131.494 17.5171H133.615ZM142.992 22H141.589L137.884 13.2086H137.826C137.845 13.4653 137.86 13.7148 137.869 13.957C137.884 14.1943 137.894 14.4244 137.898 14.6472C137.903 14.87 137.906 15.088 137.906 15.3011V22H136.809V11.3777H138.204L141.916 20.0383H141.96C141.945 19.7525 141.931 19.4837 141.916 19.2318C141.907 18.9799 141.899 18.745 141.894 18.527C141.89 18.3042 141.887 18.1008 141.887 17.9167V11.3777H142.992V22ZM150.784 16.558C150.784 17.7545 150.646 18.7571 150.37 19.566C150.094 20.3701 149.682 20.978 149.135 21.3897C148.592 21.7966 147.914 22 147.1 22H145.015V11.3777H147.188C147.977 11.3777 148.638 11.5738 149.171 11.9662C149.704 12.3585 150.106 12.9398 150.377 13.7099C150.648 14.4801 150.784 15.4295 150.784 16.558ZM149.578 16.6162C149.578 15.691 149.488 14.916 149.309 14.2912C149.13 13.6663 148.861 13.1965 148.503 12.8816C148.144 12.5668 147.691 12.4094 147.144 12.4094H146.17V20.961H147.057C147.934 20.961 148.573 20.5977 148.975 19.8712C149.377 19.1398 149.578 18.0548 149.578 16.6162ZM152.481 11.3777H154.799C155.724 11.3777 156.424 11.5884 156.898 12.0098C157.373 12.4312 157.61 13.0681 157.61 13.9206C157.61 14.3759 157.552 14.7755 157.436 15.1195C157.32 15.4585 157.148 15.7346 156.92 15.9477C156.697 16.1609 156.419 16.3037 156.085 16.3764V16.4345C156.482 16.5266 156.809 16.6816 157.065 16.8995C157.322 17.1175 157.513 17.3984 157.639 17.7423C157.765 18.0814 157.828 18.4883 157.828 18.963C157.828 19.5733 157.724 20.1061 157.516 20.5614C157.308 21.0167 157.002 21.3703 156.6 21.6222C156.203 21.8741 155.716 22 155.14 22H152.481V11.3777ZM153.636 15.955H154.784C155.36 15.955 155.779 15.7952 156.041 15.4755C156.302 15.1509 156.433 14.6666 156.433 14.0223C156.433 13.4847 156.295 13.0754 156.019 12.7945C155.743 12.5087 155.324 12.3658 154.762 12.3658H153.636V15.955ZM153.636 16.9431V20.9901H155.009C155.542 20.9901 155.944 20.8181 156.215 20.4742C156.491 20.1255 156.629 19.6023 156.629 18.9048C156.629 18.4689 156.559 18.1056 156.419 17.815C156.278 17.5244 156.077 17.3064 155.816 17.1611C155.554 17.0158 155.239 16.9431 154.871 16.9431H153.636ZM165.65 16.6743C165.65 17.4348 165.589 18.1468 165.468 18.8104C165.347 19.4691 165.156 20.0504 164.894 20.5541C164.638 21.053 164.298 21.443 163.877 21.7239C163.456 22.0048 162.945 22.1453 162.344 22.1453C161.734 22.1453 161.215 22.0024 160.789 21.7166C160.363 21.426 160.019 21.0288 159.757 20.5251C159.501 20.0213 159.312 19.4377 159.191 18.7741C159.074 18.1105 159.016 17.4057 159.016 16.6598C159.016 15.4488 159.14 14.4413 159.387 13.6373C159.639 12.8332 160.012 12.2302 160.506 11.8281C161 11.4261 161.613 11.2251 162.344 11.2251C163.138 11.2251 163.778 11.4673 164.262 11.9516C164.747 12.4312 165.098 13.0827 165.316 13.9061C165.538 14.7295 165.65 15.6523 165.65 16.6743ZM160.215 16.6743C160.215 17.6382 160.295 18.4495 160.455 19.1083C160.62 19.7622 160.859 20.2562 161.174 20.5905C161.489 20.9247 161.874 21.0918 162.329 21.0918C162.794 21.0918 163.182 20.9295 163.492 20.605C163.802 20.2756 164.034 19.784 164.189 19.1301C164.349 18.4713 164.429 17.6527 164.429 16.6743C164.429 15.2163 164.255 14.1192 163.906 13.383C163.557 12.6467 163.037 12.2786 162.344 12.2786C161.869 12.2786 161.475 12.4457 161.16 12.7799C160.845 13.1093 160.608 13.6009 160.448 14.2548C160.293 14.9039 160.215 15.7104 160.215 16.6743ZM173.624 16.6743C173.624 17.4348 173.563 18.1468 173.442 18.8104C173.321 19.4691 173.13 20.0504 172.868 20.5541C172.612 21.053 172.273 21.443 171.851 21.7239C171.43 22.0048 170.919 22.1453 170.318 22.1453C169.708 22.1453 169.19 22.0024 168.763 21.7166C168.337 21.426 167.993 21.0288 167.732 20.5251C167.475 20.0213 167.286 19.4377 167.165 18.7741C167.049 18.1105 166.991 17.4057 166.991 16.6598C166.991 15.4488 167.114 14.4413 167.361 13.6373C167.613 12.8332 167.986 12.2302 168.48 11.8281C168.974 11.4261 169.587 11.2251 170.318 11.2251C171.113 11.2251 171.752 11.4673 172.236 11.9516C172.721 12.4312 173.072 13.0827 173.29 13.9061C173.513 14.7295 173.624 15.6523 173.624 16.6743ZM168.189 16.6743C168.189 17.6382 168.269 18.4495 168.429 19.1083C168.594 19.7622 168.834 20.2562 169.148 20.5905C169.463 20.9247 169.848 21.0918 170.304 21.0918C170.769 21.0918 171.156 20.9295 171.466 20.605C171.776 20.2756 172.009 19.784 172.164 19.1301C172.323 18.4713 172.403 17.6527 172.403 16.6743C172.403 15.2163 172.229 14.1192 171.88 13.383C171.532 12.6467 171.011 12.2786 170.318 12.2786C169.843 12.2786 169.449 12.4457 169.134 12.7799C168.819 13.1093 168.582 13.6009 168.422 14.2548C168.267 14.9039 168.189 15.7104 168.189 16.6743ZM180.814 22H179.52L177.239 17.0158L176.469 17.9603V22H175.313V11.3777H176.469V16.7687C176.527 16.6283 176.624 16.4321 176.759 16.1802C176.895 15.9235 177.067 15.6111 177.275 15.243L179.419 11.3777H180.675L178.024 16.0712L180.814 22ZM190.601 16.6743C190.601 17.4348 190.54 18.1468 190.419 18.8104C190.298 19.4691 190.107 20.0504 189.845 20.5541C189.588 21.053 189.249 21.443 188.828 21.7239C188.406 22.0048 187.895 22.1453 187.295 22.1453C186.684 22.1453 186.166 22.0024 185.74 21.7166C185.314 21.426 184.97 21.0288 184.708 20.5251C184.451 20.0213 184.263 19.4377 184.141 18.7741C184.025 18.1105 183.967 17.4057 183.967 16.6598C183.967 15.4488 184.091 14.4413 184.338 13.6373C184.59 12.8332 184.962 12.2302 185.457 11.8281C185.951 11.4261 186.563 11.2251 187.295 11.2251C188.089 11.2251 188.728 11.4673 189.213 11.9516C189.697 12.4312 190.048 13.0827 190.266 13.9061C190.489 14.7295 190.601 15.6523 190.601 16.6743ZM185.166 16.6743C185.166 17.6382 185.246 18.4495 185.406 19.1083C185.57 19.7622 185.81 20.2562 186.125 20.5905C186.44 20.9247 186.825 21.0918 187.28 21.0918C187.745 21.0918 188.133 20.9295 188.443 20.605C188.753 20.2756 188.985 19.784 189.14 19.1301C189.3 18.4713 189.38 17.6527 189.38 16.6743C189.38 15.2163 189.206 14.1192 188.857 13.383C188.508 12.6467 187.987 12.2786 187.295 12.2786C186.82 12.2786 186.425 12.4457 186.11 12.7799C185.796 13.1093 185.558 13.6009 185.398 14.2548C185.243 14.9039 185.166 15.7104 185.166 16.6743ZM193.445 22H192.29V11.3777H196.468V12.4094H193.445V16.3764H196.293V17.4227H193.445V22ZM105.275 40H101.097V29.3777H105.275V30.4094H102.252V33.9332H105.093V34.9722H102.252V38.9465H105.275V40ZM110.546 40L107.967 30.9761H107.909C107.928 31.3006 107.943 31.5937 107.952 31.8552C107.967 32.112 107.977 32.3348 107.981 32.5237C107.986 32.7126 107.989 32.8676 107.989 32.9887V40H106.892V29.3777H108.526L111.062 38.2127H111.106L113.649 29.3777H115.305V40H114.172V33.0177C114.172 32.887 114.174 32.7247 114.179 32.5309C114.184 32.3372 114.191 32.112 114.201 31.8552C114.215 31.5937 114.227 31.3006 114.237 30.9761H114.186L111.607 40H110.546ZM117.322 40V29.3777H118.477V40H117.322ZM124.94 37.101C124.94 37.7016 124.823 38.232 124.591 38.6922C124.363 39.1475 124.041 39.5035 123.625 39.7602C123.213 40.017 122.726 40.1453 122.164 40.1453C121.888 40.1453 121.622 40.1284 121.365 40.0945C121.108 40.0654 120.864 40.017 120.631 39.9491C120.404 39.8813 120.186 39.7966 119.977 39.6948V38.496C120.307 38.6801 120.663 38.8205 121.045 38.9174C121.433 39.0143 121.791 39.0627 122.121 39.0627C122.474 39.0627 122.772 38.9804 123.014 38.8157C123.256 38.6462 123.441 38.4209 123.566 38.14C123.697 37.8591 123.763 37.5491 123.763 37.21C123.763 36.8516 123.709 36.5512 123.603 36.3091C123.496 36.062 123.322 35.8392 123.08 35.6406C122.838 35.442 122.511 35.2362 122.099 35.023C121.789 34.8535 121.508 34.6791 121.256 34.4999C121.004 34.3207 120.789 34.1197 120.609 33.8969C120.43 33.6692 120.292 33.4028 120.195 33.0977C120.098 32.7925 120.05 32.4292 120.05 32.0078C120.04 31.4508 120.149 30.964 120.377 30.5474C120.609 30.126 120.929 29.7991 121.336 29.5666C121.748 29.3341 122.218 29.2202 122.745 29.2251C123.148 29.2251 123.53 29.2759 123.893 29.3777C124.262 29.4745 124.579 29.5932 124.845 29.7337L124.467 30.7945C124.172 30.6346 123.879 30.5159 123.588 30.4384C123.303 30.3561 123.029 30.3149 122.767 30.3149C122.443 30.3149 122.164 30.3852 121.932 30.5256C121.704 30.6661 121.527 30.8598 121.401 31.1069C121.28 31.3491 121.22 31.6324 121.22 31.957C121.22 32.3299 121.273 32.6375 121.38 32.8797C121.491 33.1219 121.668 33.3374 121.91 33.5263C122.157 33.7152 122.481 33.9187 122.884 34.1366C123.344 34.3788 123.726 34.6404 124.031 34.9213C124.337 35.1974 124.564 35.5123 124.714 35.8659C124.865 36.2195 124.94 36.6312 124.94 37.101ZM130.909 37.101C130.909 37.7016 130.792 38.232 130.56 38.6922C130.332 39.1475 130.01 39.5035 129.593 39.7602C129.182 40.017 128.695 40.1453 128.133 40.1453C127.857 40.1453 127.591 40.1284 127.334 40.0945C127.077 40.0654 126.833 40.017 126.6 39.9491C126.372 39.8813 126.154 39.7966 125.946 39.6948V38.496C126.276 38.6801 126.632 38.8205 127.014 38.9174C127.402 39.0143 127.76 39.0627 128.089 39.0627C128.443 39.0627 128.741 38.9804 128.983 38.8157C129.225 38.6462 129.409 38.4209 129.535 38.14C129.666 37.8591 129.732 37.5491 129.732 37.21C129.732 36.8516 129.678 36.5512 129.572 36.3091C129.465 36.062 129.291 35.8392 129.049 35.6406C128.806 35.442 128.479 35.2362 128.068 35.023C127.758 34.8535 127.477 34.6791 127.225 34.4999C126.973 34.3207 126.757 34.1197 126.578 33.8969C126.399 33.6692 126.261 33.4028 126.164 33.0977C126.067 32.7925 126.019 32.4292 126.019 32.0078C126.009 31.4508 126.118 30.964 126.346 30.5474C126.578 30.126 126.898 29.7991 127.305 29.5666C127.717 29.3341 128.186 29.2202 128.714 29.2251C129.116 29.2251 129.499 29.2759 129.862 29.3777C130.23 29.4745 130.548 29.5932 130.814 29.7337L130.436 30.7945C130.141 30.6346 129.848 30.5159 129.557 30.4384C129.271 30.3561 128.998 30.3149 128.736 30.3149C128.412 30.3149 128.133 30.3852 127.901 30.5256C127.673 30.6661 127.496 30.8598 127.37 31.1069C127.249 31.3491 127.189 31.6324 127.189 31.957C127.189 32.3299 127.242 32.6375 127.348 32.8797C127.46 33.1219 127.637 33.3374 127.879 33.5263C128.126 33.7152 128.45 33.9187 128.852 34.1366C129.313 34.3788 129.695 34.6404 130 34.9213C130.306 35.1974 130.533 35.5123 130.683 35.8659C130.833 36.2195 130.909 36.6312 130.909 37.101ZM132.438 40V29.3777H133.593V40H132.438ZM141.902 34.6743C141.902 35.4348 141.841 36.1468 141.72 36.8104C141.599 37.4691 141.408 38.0504 141.146 38.5541C140.889 39.053 140.55 39.443 140.129 39.7239C139.708 40.0048 139.196 40.1453 138.596 40.1453C137.986 40.1453 137.467 40.0024 137.041 39.7166C136.615 39.426 136.271 39.0288 136.009 38.5251C135.753 38.0213 135.564 37.4377 135.443 36.7741C135.326 36.1105 135.268 35.4057 135.268 34.6598C135.268 33.4488 135.392 32.4413 135.639 31.6373C135.891 30.8332 136.264 30.2302 136.758 29.8281C137.252 29.4261 137.864 29.2251 138.596 29.2251C139.39 29.2251 140.03 29.4673 140.514 29.9516C140.998 30.4312 141.35 31.0827 141.568 31.9061C141.79 32.7295 141.902 33.6523 141.902 34.6743ZM136.467 34.6743C136.467 35.6382 136.547 36.4495 136.707 37.1083C136.871 37.7622 137.111 38.2562 137.426 38.5905C137.741 38.9247 138.126 39.0918 138.581 39.0918C139.046 39.0918 139.434 38.9295 139.744 38.605C140.054 38.2756 140.286 37.784 140.441 37.1301C140.601 36.4713 140.681 35.6527 140.681 34.6743C140.681 33.2163 140.507 32.1192 140.158 31.383C139.809 30.6467 139.289 30.2786 138.596 30.2786C138.121 30.2786 137.726 30.4457 137.412 30.7799C137.097 31.1093 136.859 31.6009 136.7 32.2548C136.545 32.9039 136.467 33.7104 136.467 34.6743ZM149.774 40H148.372L144.666 31.2086H144.608C144.628 31.4653 144.642 31.7148 144.652 31.957C144.666 32.1943 144.676 32.4244 144.681 32.6472C144.686 32.87 144.688 33.088 144.688 33.3011V40H143.591V29.3777H144.986L148.699 38.0383H148.742C148.728 37.7525 148.713 37.4837 148.699 37.2318C148.689 36.9799 148.682 36.745 148.677 36.527C148.672 36.3042 148.67 36.1008 148.67 35.9167V29.3777H149.774V40ZM155.565 40H154.41V29.3777H158.588V30.4094H155.565V34.3764H158.413V35.4227H155.565V40ZM164.128 40L163.329 36.5852H160.807L160.008 40H158.773L161.338 29.3777H162.74L165.356 40H164.128ZM163.111 35.5171L162.297 31.9134C162.263 31.7341 162.229 31.5598 162.195 31.3902C162.166 31.2159 162.137 31.0487 162.108 30.8889C162.084 30.7242 162.06 30.5644 162.035 30.4094C162.021 30.5644 162.001 30.7242 161.977 30.8889C161.953 31.0536 161.924 31.2207 161.89 31.3902C161.856 31.5549 161.82 31.7245 161.781 31.8988L160.989 35.5171H163.111ZM169.537 30.2641C169.116 30.2641 168.753 30.3827 168.447 30.6201C168.147 30.8574 167.9 31.1844 167.706 31.6009C167.517 32.0127 167.377 32.4849 167.285 33.0177C167.198 33.5457 167.154 34.1027 167.154 34.6888C167.154 35.5995 167.253 36.3841 167.452 37.0429C167.655 37.7016 167.941 38.2102 168.309 38.5687C168.677 38.9223 169.111 39.0991 169.61 39.0991C169.91 39.0991 170.194 39.0603 170.46 38.9828C170.726 38.9053 170.971 38.8109 171.194 38.6995V39.7457C170.961 39.8813 170.702 39.9806 170.416 40.0436C170.131 40.1114 169.818 40.1453 169.479 40.1453C168.757 40.1453 168.133 39.9273 167.605 39.4914C167.077 39.0555 166.67 38.4306 166.384 37.6169C166.098 36.7983 165.955 35.8174 165.955 34.6743C165.955 33.9235 166.026 33.2187 166.166 32.56C166.311 31.9012 166.529 31.32 166.82 30.8162C167.115 30.3125 167.486 29.9202 167.932 29.6392C168.377 29.3534 168.9 29.2105 169.501 29.2105C169.85 29.2105 170.184 29.2566 170.504 29.3486C170.828 29.4358 171.138 29.5641 171.434 29.7337L171.019 30.7145C170.797 30.5741 170.562 30.4651 170.315 30.3876C170.068 30.3052 169.809 30.2641 169.537 30.2641ZM175.005 40H173.85V30.4239H171.779V29.3777H177.083V30.4239H175.005V40ZM184.468 34.6743C184.468 35.4348 184.408 36.1468 184.287 36.8104C184.166 37.4691 183.974 38.0504 183.713 38.5541C183.456 39.053 183.117 39.443 182.696 39.7239C182.274 40.0048 181.763 40.1453 181.163 40.1453C180.552 40.1453 180.034 40.0024 179.608 39.7166C179.181 39.426 178.838 39.0288 178.576 38.5251C178.319 38.0213 178.13 37.4377 178.009 36.7741C177.893 36.1105 177.835 35.4057 177.835 34.6598C177.835 33.4488 177.958 32.4413 178.205 31.6373C178.457 30.8332 178.83 30.2302 179.324 29.8281C179.818 29.4261 180.431 29.2251 181.163 29.2251C181.957 29.2251 182.596 29.4673 183.081 29.9516C183.565 30.4312 183.916 31.0827 184.134 31.9061C184.357 32.7295 184.468 33.6523 184.468 34.6743ZM179.034 34.6743C179.034 35.6382 179.114 36.4495 179.273 37.1083C179.438 37.7622 179.678 38.2562 179.993 38.5905C180.308 38.9247 180.693 39.0918 181.148 39.0918C181.613 39.0918 182.001 38.9295 182.311 38.605C182.621 38.2756 182.853 37.784 183.008 37.1301C183.168 36.4713 183.248 35.6527 183.248 34.6743C183.248 33.2163 183.073 32.1192 182.725 31.383C182.376 30.6467 181.855 30.2786 181.163 30.2786C180.688 30.2786 180.293 30.4457 179.978 30.7799C179.663 31.1093 179.426 31.6009 179.266 32.2548C179.111 32.9039 179.034 33.7104 179.034 34.6743ZM187.974 29.3777C188.691 29.3777 189.282 29.4866 189.747 29.7046C190.212 29.9177 190.558 30.2447 190.786 30.6855C191.014 31.1214 191.128 31.6736 191.128 32.342C191.128 32.8167 191.069 33.2405 190.953 33.6135C190.837 33.9865 190.658 34.3062 190.415 34.5726C190.173 34.839 189.858 35.057 189.471 35.2265L191.629 40H190.343L188.425 35.5171H187.313V40H186.158V29.3777H187.974ZM187.981 30.4239H187.313V34.5435H188.141C188.718 34.5435 189.161 34.3667 189.471 34.0131C189.786 33.6547 189.943 33.117 189.943 32.4002C189.943 31.7027 189.786 31.1989 189.471 30.8889C189.156 30.5789 188.66 30.4239 187.981 30.4239ZM197.22 37.101C197.22 37.7016 197.104 38.232 196.871 38.6922C196.643 39.1475 196.321 39.5035 195.905 39.7602C195.493 40.017 195.006 40.1453 194.444 40.1453C194.168 40.1453 193.902 40.1284 193.645 40.0945C193.388 40.0654 193.144 40.017 192.911 39.9491C192.684 39.8813 192.466 39.7966 192.257 39.6948V38.496C192.587 38.6801 192.943 38.8205 193.326 38.9174C193.713 39.0143 194.071 39.0627 194.401 39.0627C194.754 39.0627 195.052 38.9804 195.294 38.8157C195.537 38.6462 195.721 38.4209 195.847 38.14C195.977 37.8591 196.043 37.5491 196.043 37.21C196.043 36.8516 195.99 36.5512 195.883 36.3091C195.776 36.062 195.602 35.8392 195.36 35.6406C195.118 35.442 194.791 35.2362 194.379 35.023C194.069 34.8535 193.788 34.6791 193.536 34.4999C193.284 34.3207 193.069 34.1197 192.89 33.8969C192.71 33.6692 192.572 33.4028 192.475 33.0977C192.379 32.7925 192.33 32.4292 192.33 32.0078C192.32 31.4508 192.429 30.964 192.657 30.5474C192.89 30.126 193.209 29.7991 193.616 29.5666C194.028 29.3341 194.498 29.2202 195.026 29.2251C195.428 29.2251 195.81 29.2759 196.174 29.3777C196.542 29.4745 196.859 29.5932 197.125 29.7337L196.748 30.7945C196.452 30.6346 196.159 30.5159 195.868 30.4384C195.583 30.3561 195.309 30.3149 195.047 30.3149C194.723 30.3149 194.444 30.3852 194.212 30.5256C193.984 30.6661 193.807 30.8598 193.682 31.1069C193.56 31.3491 193.5 31.6324 193.5 31.957C193.5 32.3299 193.553 32.6375 193.66 32.8797C193.771 33.1219 193.948 33.3374 194.19 33.5263C194.437 33.7152 194.762 33.9187 195.164 34.1366C195.624 34.3788 196.007 34.6404 196.312 34.9213C196.617 35.1974 196.844 35.5123 196.995 35.8659C197.145 36.2195 197.22 36.6312 197.22 37.101ZM102.252 59H101.097V48.3777H105.275V49.4094H102.252V53.3764H105.1V54.4227H102.252V59ZM112.842 53.6743C112.842 54.4348 112.782 55.1468 112.66 55.8104C112.539 56.4691 112.348 57.0504 112.087 57.5541C111.83 58.053 111.491 58.443 111.069 58.7239C110.648 59.0048 110.137 59.1453 109.536 59.1453C108.926 59.1453 108.408 59.0024 107.981 58.7166C107.555 58.426 107.211 58.0288 106.95 57.5251C106.693 57.0213 106.504 56.4377 106.383 55.7741C106.267 55.1105 106.209 54.4057 106.209 53.6598C106.209 52.4488 106.332 51.4413 106.579 50.6373C106.831 49.8332 107.204 49.2302 107.698 48.8281C108.192 48.4261 108.805 48.2251 109.536 48.2251C110.331 48.2251 110.97 48.4673 111.454 48.9516C111.939 49.4312 112.29 50.0827 112.508 50.9061C112.731 51.7295 112.842 52.6523 112.842 53.6743ZM107.407 53.6743C107.407 54.6382 107.487 55.4495 107.647 56.1083C107.812 56.7622 108.052 57.2562 108.367 57.5905C108.681 57.9247 109.066 58.0918 109.522 58.0918C109.987 58.0918 110.374 57.9295 110.684 57.605C110.994 57.2756 111.227 56.784 111.382 56.1301C111.542 55.4713 111.622 54.6527 111.622 53.6743C111.622 52.2163 111.447 51.1192 111.098 50.383C110.75 49.6467 110.229 49.2786 109.536 49.2786C109.062 49.2786 108.667 49.4457 108.352 49.7799C108.037 50.1093 107.8 50.6009 107.64 51.2548C107.485 51.9039 107.407 52.7104 107.407 53.6743ZM116.348 48.3777C117.065 48.3777 117.656 48.4866 118.121 48.7046C118.586 48.9177 118.932 49.2447 119.16 49.6855C119.387 50.1214 119.501 50.6736 119.501 51.342C119.501 51.8167 119.443 52.2405 119.327 52.6135C119.211 52.9865 119.031 53.3062 118.789 53.5726C118.547 53.839 118.232 54.057 117.845 54.2265L120.003 59H118.717L116.798 54.5171H115.687V59H114.532V48.3777H116.348ZM116.355 49.4239H115.687V53.5435H116.515C117.091 53.5435 117.535 53.3667 117.845 53.0131C118.16 52.6547 118.317 52.117 118.317 51.4002C118.317 50.7027 118.16 50.1989 117.845 49.8889C117.53 49.5789 117.033 49.4239 116.355 49.4239ZM125.583 48.3777C126.3 48.3777 126.891 48.4866 127.356 48.7046C127.821 48.9177 128.167 49.2447 128.395 49.6855C128.622 50.1214 128.736 50.6736 128.736 51.342C128.736 51.8167 128.678 52.2405 128.562 52.6135C128.446 52.9865 128.266 53.3062 128.024 53.5726C127.782 53.839 127.467 54.057 127.08 54.2265L129.237 59H127.951L126.033 54.5171H124.922V59H123.766V48.3777H125.583ZM125.59 49.4239H124.922V53.5435H125.75C126.326 53.5435 126.77 53.3667 127.08 53.0131C127.394 52.6547 127.552 52.117 127.552 51.4002C127.552 50.7027 127.394 50.1989 127.08 49.8889C126.765 49.5789 126.268 49.4239 125.59 49.4239ZM136.674 53.6743C136.674 54.4348 136.613 55.1468 136.492 55.8104C136.371 56.4691 136.18 57.0504 135.918 57.5541C135.662 58.053 135.323 58.443 134.901 58.7239C134.48 59.0048 133.969 59.1453 133.368 59.1453C132.758 59.1453 132.24 59.0024 131.813 58.7166C131.387 58.426 131.043 58.0288 130.782 57.5251C130.525 57.0213 130.336 56.4377 130.215 55.7741C130.099 55.1105 130.04 54.4057 130.04 53.6598C130.04 52.4488 130.164 51.4413 130.411 50.6373C130.663 49.8332 131.036 49.2302 131.53 48.8281C132.024 48.4261 132.637 48.2251 133.368 48.2251C134.162 48.2251 134.802 48.4673 135.286 48.9516C135.771 49.4312 136.122 50.0827 136.34 50.9061C136.563 51.7295 136.674 52.6523 136.674 53.6743ZM131.239 53.6743C131.239 54.6382 131.319 55.4495 131.479 56.1083C131.644 56.7622 131.883 57.2562 132.198 57.5905C132.513 57.9247 132.898 58.0918 133.354 58.0918C133.819 58.0918 134.206 57.9295 134.516 57.605C134.826 57.2756 135.059 56.784 135.214 56.1301C135.373 55.4713 135.453 54.6527 135.453 53.6743C135.453 52.2163 135.279 51.1192 134.93 50.383C134.581 49.6467 134.061 49.2786 133.368 49.2786C132.893 49.2786 132.499 49.4457 132.184 49.7799C131.869 50.1093 131.632 50.6009 131.472 51.2548C131.317 51.9039 131.239 52.7104 131.239 53.6743ZM142.621 59L141.822 55.5852H139.301L138.501 59H137.266L139.831 48.3777H141.233L143.849 59H142.621ZM141.604 54.5171L140.79 50.9134C140.756 50.7341 140.722 50.5598 140.688 50.3902C140.659 50.2159 140.63 50.0487 140.601 49.8889C140.577 49.7242 140.553 49.5644 140.529 49.4094C140.514 49.5644 140.495 49.7242 140.47 49.8889C140.446 50.0536 140.417 50.2207 140.383 50.3902C140.349 50.5549 140.313 50.7245 140.274 50.8988L139.482 54.5171H141.604ZM150.566 53.558C150.566 54.7545 150.428 55.7571 150.152 56.566C149.876 57.3701 149.464 57.978 148.917 58.3897C148.374 58.7966 147.696 59 146.882 59H144.797V48.3777H146.97C147.759 48.3777 148.42 48.5738 148.953 48.9662C149.486 49.3585 149.888 49.9398 150.159 50.7099C150.431 51.4801 150.566 52.4295 150.566 53.558ZM149.36 53.6162C149.36 52.691 149.27 51.916 149.091 51.2912C148.912 50.6663 148.643 50.1965 148.285 49.8816C147.926 49.5668 147.473 49.4094 146.926 49.4094H145.952V57.961H146.839C147.716 57.961 148.355 57.5977 148.757 56.8712C149.159 56.1398 149.36 55.0548 149.36 53.6162ZM157.142 59H155.987V49.4239H153.916V48.3777H159.22V49.4239H157.142V59ZM162.137 48.3777C162.854 48.3777 163.445 48.4866 163.91 48.7046C164.375 48.9177 164.721 49.2447 164.949 49.6855C165.177 50.1214 165.29 50.6736 165.29 51.342C165.29 51.8167 165.232 52.2405 165.116 52.6135C165 52.9865 164.821 53.3062 164.578 53.5726C164.336 53.839 164.021 54.057 163.634 54.2265L165.792 59H164.506L162.588 54.5171H161.476V59H160.321V48.3777H162.137ZM162.144 49.4239H161.476V53.5435H162.304C162.881 53.5435 163.324 53.3667 163.634 53.0131C163.949 52.6547 164.106 52.117 164.106 51.4002C164.106 50.7027 163.949 50.1989 163.634 49.8889C163.319 49.5789 162.822 49.4239 162.144 49.4239ZM171.201 59L170.402 55.5852H167.881L167.081 59H165.846L168.411 48.3777H169.813L172.429 59H171.201ZM170.184 54.5171L169.37 50.9134C169.336 50.7341 169.302 50.5598 169.268 50.3902C169.239 50.2159 169.21 50.0487 169.181 49.8889C169.157 49.7242 169.133 49.5644 169.109 49.4094C169.094 49.5644 169.075 49.7242 169.05 49.8889C169.026 50.0536 168.997 50.2207 168.963 50.3902C168.929 50.5549 168.893 50.7245 168.854 50.8988L168.062 54.5171H170.184ZM179.56 59H178.158L174.453 50.2086H174.394C174.414 50.4653 174.428 50.7148 174.438 50.957C174.453 51.1943 174.462 51.4244 174.467 51.6472C174.472 51.87 174.474 52.088 174.474 52.3011V59H173.377V48.3777H174.772L178.485 57.0383H178.529C178.514 56.7525 178.5 56.4837 178.485 56.2318C178.475 55.9799 178.468 55.745 178.463 55.527C178.458 55.3042 178.456 55.1008 178.456 54.9167V48.3777H179.56V59ZM186.023 56.101C186.023 56.7016 185.907 57.232 185.675 57.6922C185.447 58.1475 185.125 58.5035 184.708 58.7602C184.296 59.017 183.81 59.1453 183.248 59.1453C182.972 59.1453 182.705 59.1284 182.449 59.0945C182.192 59.0654 181.947 59.017 181.715 58.9491C181.487 58.8813 181.269 58.7966 181.061 58.6948V57.496C181.39 57.6801 181.746 57.8205 182.129 57.9174C182.516 58.0143 182.875 58.0627 183.204 58.0627C183.558 58.0627 183.856 57.9804 184.098 57.8157C184.34 57.6462 184.524 57.4209 184.65 57.14C184.781 56.8591 184.846 56.5491 184.846 56.21C184.846 55.8516 184.793 55.5512 184.686 55.3091C184.58 55.062 184.405 54.8392 184.163 54.6406C183.921 54.442 183.594 54.2362 183.182 54.023C182.872 53.8535 182.591 53.6791 182.34 53.4999C182.088 53.3207 181.872 53.1197 181.693 52.8969C181.514 52.6692 181.376 52.4028 181.279 52.0977C181.182 51.7925 181.133 51.4292 181.133 51.0078C181.124 50.4508 181.233 49.964 181.46 49.5474C181.693 49.126 182.013 48.7991 182.42 48.5666C182.831 48.3341 183.301 48.2202 183.829 48.2251C184.231 48.2251 184.614 48.2759 184.977 48.3777C185.345 48.4745 185.662 48.5932 185.929 48.7337L185.551 49.7945C185.256 49.6346 184.962 49.5159 184.672 49.4384C184.386 49.3561 184.112 49.3149 183.851 49.3149C183.526 49.3149 183.248 49.3852 183.015 49.5256C182.788 49.6661 182.611 49.8598 182.485 50.1069C182.364 50.3491 182.303 50.6324 182.303 50.957C182.303 51.3299 182.357 51.6375 182.463 51.8797C182.575 52.1219 182.751 52.3374 182.993 52.5263C183.241 52.7152 183.565 52.9187 183.967 53.1366C184.427 53.3788 184.81 53.6404 185.115 53.9213C185.42 54.1974 185.648 54.5123 185.798 54.8659C185.948 55.2195 186.023 55.6312 186.023 56.101ZM189.456 48.3777C190.498 48.3777 191.266 48.6295 191.76 49.1333C192.259 49.637 192.508 50.4217 192.508 51.4873C192.508 52.0347 192.443 52.5166 192.312 52.9332C192.186 53.3449 191.995 53.6912 191.738 53.9722C191.486 54.2531 191.166 54.4662 190.779 54.6116C190.396 54.752 189.946 54.8223 189.427 54.8223H188.708V59H187.553V48.3777H189.456ZM189.413 49.3948H188.708V53.7978H189.326C189.795 53.7978 190.176 53.7203 190.466 53.5653C190.762 53.4103 190.977 53.1633 191.113 52.8242C191.253 52.4852 191.324 52.0444 191.324 51.5019C191.324 50.7511 191.169 50.2134 190.859 49.8889C190.549 49.5595 190.067 49.3948 189.413 49.3948ZM200.199 53.6743C200.199 54.4348 200.138 55.1468 200.017 55.8104C199.896 56.4691 199.705 57.0504 199.443 57.5541C199.186 58.053 198.847 58.443 198.426 58.7239C198.005 59.0048 197.494 59.1453 196.893 59.1453C196.283 59.1453 195.764 59.0024 195.338 58.7166C194.912 58.426 194.568 58.0288 194.306 57.5251C194.05 57.0213 193.861 56.4377 193.74 55.7741C193.623 55.1105 193.565 54.4057 193.565 53.6598C193.565 52.4488 193.689 51.4413 193.936 50.6373C194.188 49.8332 194.561 49.2302 195.055 48.8281C195.549 48.4261 196.162 48.2251 196.893 48.2251C197.687 48.2251 198.327 48.4673 198.811 48.9516C199.295 49.4312 199.647 50.0827 199.865 50.9061C200.087 51.7295 200.199 52.6523 200.199 53.6743ZM194.764 53.6743C194.764 54.6382 194.844 55.4495 195.004 56.1083C195.169 56.7622 195.408 57.2562 195.723 57.5905C196.038 57.9247 196.423 58.0918 196.878 58.0918C197.343 58.0918 197.731 57.9295 198.041 57.605C198.351 57.2756 198.583 56.784 198.738 56.1301C198.898 55.4713 198.978 54.6527 198.978 53.6743C198.978 52.2163 198.804 51.1192 198.455 50.383C198.106 49.6467 197.586 49.2786 196.893 49.2786C196.418 49.2786 196.023 49.4457 195.709 49.7799C195.394 50.1093 195.156 50.6009 194.997 51.2548C194.842 51.9039 194.764 52.7104 194.764 53.6743ZM203.705 48.3777C204.421 48.3777 205.012 48.4866 205.477 48.7046C205.942 48.9177 206.289 49.2447 206.516 49.6855C206.744 50.1214 206.858 50.6736 206.858 51.342C206.858 51.8167 206.8 52.2405 206.683 52.6135C206.567 52.9865 206.388 53.3062 206.146 53.5726C205.904 53.839 205.589 54.057 205.201 54.2265L207.359 59H206.073L204.155 54.5171H203.043V59H201.888V48.3777H203.705ZM203.712 49.4239H203.043V53.5435H203.872C204.448 53.5435 204.891 53.3667 205.201 53.0131C205.516 52.6547 205.674 52.117 205.674 51.4002C205.674 50.7027 205.516 50.1989 205.201 49.8889C204.886 49.5789 204.39 49.4239 203.712 49.4239ZM210.778 59H209.623V49.4239H207.552V48.3777H212.856V49.4239H210.778V59Z" fill="black"/>
</svg>
